# Blender 5.0.1
# www.blender.org
mtllib cross.mtl
o Cube
v 0.156667 -0.082326 -0.049521
v 0.087903 -0.153607 -0.049521
v 0.156667 -0.082326 0.049521
v 0.087903 -0.153607 0.049521
v -0.087903 0.153607 -0.049521
v -0.156667 0.082326 -0.049521
v -0.087903 0.153607 0.049521
v -0.156667 0.082326 0.049521
v 0.156667 -0.082326 0.049521
v -0.087903 0.153607 0.049521
v 0.156667 -0.082326 -0.049521
v -0.087903 0.153607 -0.049521
v 0.156667 -0.082326 0.049521
v -0.087903 0.153607 0.049521
v 0.156667 -0.082326 -0.049521
v -0.087903 0.153607 -0.049521
vn 0.6943 0.7197 -0.0000
vn -0.0000 -0.0000 1.0000
vn -0.7197 0.6943 -0.0000
vn -0.6943 -0.7197 -0.0000
vn 0.7197 -0.6943 -0.0000
vn -0.0000 -0.0000 -1.0000
vt 0.625000 0.500000
vt 0.625000 0.250000
vt 0.375000 0.750000
vt 0.625000 0.750000
vt 0.625000 1.000000
vt 0.375000 1.000000
vt 0.375000 0.000000
vt 0.625000 0.000000
vt 0.375000 0.250000
vt 0.125000 0.500000
vt 0.375000 0.500000
vt 0.125000 0.750000
vt 0.875000 0.500000
vt 0.875000 0.750000
s 0
usemtl Material
f 1/1/1 5/2/1 12/2/1 11/1/1
f 4/3/2 3/4/2 7/5/2 8/6/2
f 8/7/3 7/8/3 5/2/3 6/9/3
f 6/10/4 2/11/4 4/3/4 8/12/4
f 2/11/5 1/1/5 3/4/5 4/3/5
f 6/9/6 5/2/6 1/1/6 2/11/6
f 12/2/1 10/8/1 14/8/1 16/2/1
f 7/5/1 3/4/1 9/4/1 10/5/1
f 5/2/1 7/8/1 10/8/1 12/2/1
f 3/4/1 1/1/1 11/1/1 9/4/1
f 15/1/1 16/13/1 14/14/1 13/4/1
f 10/5/1 9/4/1 13/4/1 14/5/1
f 11/1/1 12/2/1 16/2/1 15/1/1
f 9/4/1 11/1/1 15/1/1 13/4/1
o Cube.001
v 0.087973 0.153568 -0.049521
v 0.156704 0.082255 -0.049521
v 0.087973 0.153568 0.049521
v 0.156704 0.082255 0.049521
v -0.156704 -0.082255 -0.049521
v -0.087973 -0.153568 -0.049521
v -0.156704 -0.082255 0.049521
v -0.087973 -0.153568 0.049521
v 0.087973 0.153568 0.049521
v -0.156704 -0.082255 0.049521
v 0.087973 0.153568 -0.049521
v -0.156704 -0.082255 -0.049521
v 0.087973 0.153568 0.049521
v -0.156704 -0.082255 0.049521
v 0.087973 0.153568 -0.049521
v -0.156704 -0.082255 -0.049521
vn -0.6940 0.7200 -0.0000
vn -0.0000 -0.0000 1.0000
vn -0.7200 -0.6940 -0.0000
vn 0.6940 -0.7200 -0.0000
vn 0.7200 0.6940 -0.0000
vn -0.0000 -0.0000 -1.0000
vt 0.625000 0.500000
vt 0.625000 0.250000
vt 0.375000 0.750000
vt 0.625000 0.750000
vt 0.625000 1.000000
vt 0.375000 1.000000
vt 0.375000 0.000000
vt 0.625000 0.000000
vt 0.375000 0.250000
vt 0.125000 0.500000
vt 0.375000 0.500000
vt 0.125000 0.750000
vt 0.875000 0.500000
vt 0.875000 0.750000
s 0
usemtl Material.001
f 17/15/7 21/16/7 28/16/7 27/15/7
f 20/17/8 19/18/8 23/19/8 24/20/8
f 24/21/9 23/22/9 21/16/9 22/23/9
f 22/24/10 18/25/10 20/17/10 24/26/10
f 18/25/11 17/15/11 19/18/11 20/17/11
f 22/23/12 21/16/12 17/15/12 18/25/12
f 28/16/7 26/22/7 30/22/7 32/16/7
f 23/19/7 19/18/7 25/18/7 26/19/7
f 21/16/7 23/22/7 26/22/7 28/16/7
f 19/18/7 17/15/7 27/15/7 25/18/7
f 31/15/7 32/27/7 30/28/7 29/18/7
f 26/19/7 25/18/7 29/18/7 30/19/7
f 27/15/7 28/16/7 32/16/7 31/15/7
f 25/18/7 27/15/7 31/15/7 29/18/7
