# Blender 5.0.1
# www.blender.org
mtllib split.mtl
o Torus
v 0.087460 0.000143 -0.023770
v 0.085120 0.009185 -0.023143
v 0.078726 0.015803 -0.021430
v 0.069993 0.018226 -0.019090
v 0.061259 0.015803 -0.016750
v 0.054866 0.009185 -0.015037
v 0.052526 0.000143 -0.014410
v 0.054866 -0.008899 -0.015037
v 0.061259 -0.015517 -0.016750
v 0.069993 -0.017940 -0.019090
v 0.078726 -0.015517 -0.021430
v 0.085120 -0.008899 -0.023143
v 0.083658 0.000143 -0.034970
v 0.081420 0.009185 -0.034042
v 0.075305 0.015803 -0.031509
v 0.066952 0.018226 -0.028049
v 0.058598 0.015803 -0.024589
v 0.052483 0.009185 -0.022056
v 0.050245 0.000143 -0.021129
v 0.052483 -0.008899 -0.022056
v 0.058598 -0.015517 -0.024589
v 0.066952 -0.017940 -0.028049
v 0.075305 -0.015517 -0.031509
v 0.081420 -0.008899 -0.034042
v 0.078427 0.000143 -0.045577
v 0.076329 0.009185 -0.044365
v 0.070597 0.015803 -0.041056
v 0.062767 0.018226 -0.036535
v 0.054937 0.015803 -0.032014
v 0.049204 0.009185 -0.028705
v 0.047106 0.000143 -0.027494
v 0.049204 -0.008899 -0.028705
v 0.054937 -0.015517 -0.032014
v 0.062767 -0.017940 -0.036535
v 0.070597 -0.015517 -0.041056
v 0.076329 -0.008899 -0.044365
v 0.071857 0.000143 -0.055410
v 0.069934 0.009185 -0.053936
v 0.064683 0.015803 -0.049906
v 0.057510 0.018226 -0.044402
v 0.050337 0.015803 -0.038898
v 0.045086 0.009185 -0.034869
v 0.043164 0.000143 -0.033394
v 0.045086 -0.008899 -0.034869
v 0.050337 -0.015517 -0.038898
v 0.057510 -0.017940 -0.044402
v 0.064683 -0.015517 -0.049906
v 0.069934 -0.008899 -0.053936
v 0.064058 0.000143 -0.064302
v 0.062345 0.009185 -0.062589
v 0.057665 0.015803 -0.057909
v 0.051272 0.018226 -0.051516
v 0.044878 0.015803 -0.045122
v 0.040198 0.009185 -0.040442
v 0.038485 0.000143 -0.038729
v 0.040198 -0.008899 -0.040442
v 0.044878 -0.015517 -0.045122
v 0.051272 -0.017940 -0.051516
v 0.057665 -0.015517 -0.057909
v 0.062345 -0.008899 -0.062589
v 0.055167 0.000143 -0.072100
v 0.053692 0.009185 -0.070178
v 0.049662 0.015803 -0.064927
v 0.044158 0.018226 -0.057754
v 0.038654 0.015803 -0.050581
v 0.034625 0.009185 -0.045330
v 0.033150 0.000143 -0.043408
v 0.034625 -0.008899 -0.045330
v 0.038654 -0.015517 -0.050581
v 0.044158 -0.017940 -0.057754
v 0.049662 -0.015517 -0.064927
v 0.053692 -0.008899 -0.070178
v 0.045333 0.000143 -0.078671
v 0.044121 0.009185 -0.076573
v 0.040812 0.015803 -0.070841
v 0.036291 0.018226 -0.063011
v 0.031771 0.015803 -0.055181
v 0.028461 0.009185 -0.049448
v 0.027250 0.000143 -0.047350
v 0.028461 -0.008899 -0.049448
v 0.031771 -0.015517 -0.055181
v 0.036291 -0.017940 -0.063011
v 0.040812 -0.015517 -0.070841
v 0.044121 -0.008899 -0.076573
v 0.034726 0.000143 -0.083902
v 0.033799 0.009185 -0.081664
v 0.031266 0.015803 -0.075549
v 0.027806 0.018226 -0.067195
v 0.024345 0.015803 -0.058842
v 0.021813 0.009185 -0.052727
v 0.020885 0.000143 -0.050489
v 0.021813 -0.008899 -0.052727
v 0.024345 -0.015517 -0.058842
v 0.027806 -0.017940 -0.067195
v 0.031266 -0.015517 -0.075549
v 0.033799 -0.008899 -0.081664
v 0.023526 0.000143 -0.087704
v 0.022899 0.009185 -0.085364
v 0.021186 0.015803 -0.078970
v 0.018846 0.018226 -0.070237
v 0.016506 0.015803 -0.061503
v 0.014793 0.009185 -0.055110
v 0.014166 0.000143 -0.052770
v 0.014793 -0.008899 -0.055110
v 0.016506 -0.015517 -0.061503
v 0.018846 -0.017940 -0.070237
v 0.021186 -0.015517 -0.078970
v 0.022899 -0.008899 -0.085364
v 0.011927 0.000143 -0.090011
v 0.011610 0.009185 -0.087609
v 0.010747 0.015803 -0.081047
v 0.009566 0.018226 -0.072083
v 0.008386 0.015803 -0.063118
v 0.007522 0.009185 -0.056556
v 0.007206 0.000143 -0.054154
v 0.007522 -0.008899 -0.056556
v 0.008386 -0.015517 -0.063118
v 0.009566 -0.017940 -0.072083
v 0.010747 -0.015517 -0.081047
v 0.011610 -0.008899 -0.087609
v 0.000125 0.000143 -0.090785
v 0.000125 0.009185 -0.088362
v 0.000125 0.015803 -0.081743
v 0.000125 0.018226 -0.072701
v 0.000125 0.015803 -0.063660
v 0.000125 0.009185 -0.057041
v 0.000125 0.000143 -0.054618
v 0.000125 -0.008899 -0.057041
v 0.000125 -0.015517 -0.063660
v 0.000125 -0.017940 -0.072701
v 0.000125 -0.015517 -0.081743
v 0.000125 -0.008899 -0.088362
v -0.011677 0.000143 -0.090011
v -0.011360 0.009185 -0.087609
v -0.010496 0.015803 -0.081047
v -0.009316 0.018226 -0.072083
v -0.008136 0.015803 -0.063118
v -0.007272 0.009185 -0.056556
v -0.006956 0.000143 -0.054154
v -0.007272 -0.008899 -0.056556
v -0.008136 -0.015517 -0.063118
v -0.009316 -0.017940 -0.072083
v -0.010496 -0.015517 -0.081047
v -0.011360 -0.008899 -0.087609
v -0.023276 0.000143 -0.087704
v -0.022649 0.009185 -0.085364
v -0.020936 0.015803 -0.078970
v -0.018596 0.018226 -0.070237
v -0.016256 0.015803 -0.061503
v -0.014543 0.009185 -0.055110
v -0.013916 0.000143 -0.052770
v -0.014543 -0.008899 -0.055110
v -0.016256 -0.015517 -0.061503
v -0.018596 -0.017940 -0.070237
v -0.020936 -0.015517 -0.078970
v -0.022649 -0.008899 -0.085364
v -0.034475 0.000143 -0.083902
v -0.033548 0.009185 -0.081664
v -0.031015 0.015803 -0.075549
v -0.027555 0.018226 -0.067195
v -0.024095 0.015803 -0.058842
v -0.021562 0.009185 -0.052727
v -0.020635 0.000143 -0.050489
v -0.021562 -0.008899 -0.052727
v -0.024095 -0.015517 -0.058842
v -0.027555 -0.017940 -0.067195
v -0.031015 -0.015517 -0.075549
v -0.033548 -0.008899 -0.081664
v -0.045083 0.000143 -0.078671
v -0.043871 0.009185 -0.076573
v -0.040562 0.015803 -0.070841
v -0.036041 0.018226 -0.063011
v -0.031520 0.015803 -0.055181
v -0.028211 0.009185 -0.049448
v -0.027000 0.000143 -0.047350
v -0.028211 -0.008899 -0.049448
v -0.031520 -0.015517 -0.055181
v -0.036041 -0.017940 -0.063011
v -0.040562 -0.015517 -0.070841
v -0.043871 -0.008899 -0.076573
v -0.054916 0.000143 -0.072100
v -0.053442 0.009185 -0.070178
v -0.049412 0.015803 -0.064927
v -0.043908 0.018226 -0.057754
v -0.038404 0.015803 -0.050581
v -0.034375 0.009185 -0.045330
v -0.032900 0.000143 -0.043408
v -0.034375 -0.008899 -0.045330
v -0.038404 -0.015517 -0.050581
v -0.043908 -0.017940 -0.057754
v -0.049412 -0.015517 -0.064927
v -0.053442 -0.008899 -0.070178
v -0.063808 0.000143 -0.064302
v -0.062095 0.009185 -0.062589
v -0.057415 0.015803 -0.057909
v -0.051022 0.018226 -0.051516
v -0.044628 0.015803 -0.045122
v -0.039948 0.009185 -0.040442
v -0.038235 0.000143 -0.038729
v -0.039948 -0.008899 -0.040442
v -0.044628 -0.015517 -0.045122
v -0.051022 -0.017940 -0.051516
v -0.057415 -0.015517 -0.057909
v -0.062095 -0.008899 -0.062589
v -0.071606 0.000143 -0.055411
v -0.069684 0.009185 -0.053936
v -0.064433 0.015803 -0.049906
v -0.057260 0.018226 -0.044402
v -0.050087 0.015803 -0.038898
v -0.044836 0.009185 -0.034869
v -0.042914 0.000143 -0.033394
v -0.044836 -0.008899 -0.034869
v -0.050087 -0.015517 -0.038898
v -0.057260 -0.017940 -0.044402
v -0.064433 -0.015517 -0.049906
v -0.069684 -0.008899 -0.053936
v -0.078177 0.000143 -0.045577
v -0.076079 0.009185 -0.044365
v -0.070347 0.015803 -0.041056
v -0.062517 0.018226 -0.036535
v -0.054686 0.015803 -0.032014
v -0.048954 0.009185 -0.028705
v -0.046856 0.000143 -0.027494
v -0.048954 -0.008899 -0.028705
v -0.054686 -0.015517 -0.032014
v -0.062517 -0.017940 -0.036535
v -0.070347 -0.015517 -0.041056
v -0.076079 -0.008899 -0.044365
v -0.083408 0.000143 -0.034970
v -0.081170 0.009185 -0.034042
v -0.075055 0.015803 -0.031510
v -0.066701 0.018226 -0.028049
v -0.058348 0.015803 -0.024589
v -0.052233 0.009185 -0.022056
v -0.049995 0.000143 -0.021129
v -0.052233 -0.008899 -0.022056
v -0.058348 -0.015517 -0.024589
v -0.066701 -0.017940 -0.028049
v -0.075055 -0.015517 -0.031510
v -0.081170 -0.008899 -0.034042
v -0.087210 0.000143 -0.023770
v -0.084869 0.009185 -0.023143
v -0.078476 0.015803 -0.021430
v -0.069743 0.018226 -0.019090
v -0.061009 0.015803 -0.016750
v -0.054616 0.009185 -0.015037
v -0.052276 0.000143 -0.014410
v -0.054616 -0.008899 -0.015037
v -0.061009 -0.015517 -0.016750
v -0.069743 -0.017940 -0.019090
v -0.078476 -0.015517 -0.021430
v -0.084869 -0.008899 -0.023143
v -0.089517 0.000143 -0.012171
v -0.087115 0.009185 -0.011854
v -0.080553 0.015803 -0.010990
v -0.071588 0.018226 -0.009810
v -0.062624 0.015803 -0.008630
v -0.056062 0.009185 -0.007766
v -0.053660 0.000143 -0.007450
v -0.056062 -0.008899 -0.007766
v -0.062624 -0.015517 -0.008630
v -0.071588 -0.017940 -0.009810
v -0.080553 -0.015517 -0.010990
v -0.087115 -0.008899 -0.011854
v -0.087210 0.000143 0.023032
v -0.084869 0.009185 0.022405
v -0.078476 0.015803 0.020692
v -0.069743 0.018226 0.018352
v -0.061009 0.015803 0.016012
v -0.054616 0.009185 0.014299
v -0.052276 0.000143 0.013672
v -0.054616 -0.008899 0.014299
v -0.061009 -0.015517 0.016012
v -0.069743 -0.017940 0.018352
v -0.078476 -0.015517 0.020692
v -0.084869 -0.008899 0.022405
v -0.083408 0.000143 0.034231
v -0.081170 0.009185 0.033304
v -0.075055 0.015803 0.030771
v -0.066701 0.018226 0.027311
v -0.058348 0.015803 0.023851
v -0.052233 0.009185 0.021318
v -0.049995 0.000143 0.020391
v -0.052233 -0.008899 0.021318
v -0.058348 -0.015517 0.023851
v -0.066701 -0.017940 0.027311
v -0.075055 -0.015517 0.030771
v -0.081170 -0.008899 0.033304
v -0.078177 0.000143 0.044839
v -0.076079 0.009185 0.043627
v -0.070347 0.015803 0.040318
v -0.062517 0.018226 0.035797
v -0.054686 0.015803 0.031276
v -0.048954 0.009185 0.027967
v -0.046856 0.000143 0.026756
v -0.048954 -0.008899 0.027967
v -0.054686 -0.015517 0.031276
v -0.062517 -0.017940 0.035797
v -0.070347 -0.015517 0.040318
v -0.076079 -0.008899 0.043627
v -0.071606 0.000143 0.054672
v -0.069684 0.009185 0.053198
v -0.064433 0.015803 0.049168
v -0.057260 0.018226 0.043664
v -0.050087 0.015803 0.038160
v -0.044836 0.009185 0.034131
v -0.042914 0.000143 0.032656
v -0.044836 -0.008899 0.034131
v -0.050087 -0.015517 0.038160
v -0.057260 -0.017940 0.043664
v -0.064433 -0.015517 0.049168
v -0.069684 -0.008899 0.053198
v -0.063808 0.000143 0.063564
v -0.062095 0.009185 0.061851
v -0.057415 0.015803 0.057171
v -0.051022 0.018226 0.050778
v -0.044628 0.015803 0.044384
v -0.039948 0.009185 0.039704
v -0.038235 0.000143 0.037991
v -0.039948 -0.008899 0.039704
v -0.044628 -0.015517 0.044384
v -0.051022 -0.017940 0.050778
v -0.057415 -0.015517 0.057171
v -0.062095 -0.008899 0.061851
v -0.054916 0.000143 0.071362
v -0.053442 0.009185 0.069440
v -0.049412 0.015803 0.064189
v -0.043908 0.018226 0.057016
v -0.038404 0.015803 0.049843
v -0.034375 0.009185 0.044592
v -0.032900 0.000143 0.042670
v -0.034375 -0.008899 0.044592
v -0.038404 -0.015517 0.049843
v -0.043908 -0.017940 0.057016
v -0.049412 -0.015517 0.064189
v -0.053442 -0.008899 0.069440
v -0.045083 0.000143 0.077933
v -0.043871 0.009185 0.075835
v -0.040562 0.015803 0.070103
v -0.036041 0.018226 0.062273
v -0.031520 0.015803 0.054442
v -0.028211 0.009185 0.048710
v -0.027000 0.000143 0.046612
v -0.028211 -0.008899 0.048710
v -0.031520 -0.015517 0.054442
v -0.036041 -0.017940 0.062273
v -0.040562 -0.015517 0.070103
v -0.043871 -0.008899 0.075835
v -0.034475 0.000143 0.083164
v -0.033548 0.009185 0.080926
v -0.031015 0.015803 0.074811
v -0.027555 0.018226 0.066457
v -0.024095 0.015803 0.058104
v -0.021562 0.009185 0.051989
v -0.020635 0.000143 0.049751
v -0.021562 -0.008899 0.051989
v -0.024095 -0.015517 0.058104
v -0.027555 -0.017940 0.066457
v -0.031015 -0.015517 0.074811
v -0.033548 -0.008899 0.080926
v -0.023276 0.000143 0.086966
v -0.022649 0.009185 0.084625
v -0.020936 0.015803 0.078232
v -0.018596 0.018226 0.069499
v -0.016256 0.015803 0.060765
v -0.014543 0.009185 0.054372
v -0.013916 0.000143 0.052032
v -0.014543 -0.008899 0.054372
v -0.016256 -0.015517 0.060765
v -0.018596 -0.017940 0.069499
v -0.020936 -0.015517 0.078232
v -0.022649 -0.008899 0.084625
v -0.011677 0.000143 0.089273
v -0.011360 0.009185 0.086871
v -0.010496 0.015803 0.080309
v -0.009316 0.018226 0.071345
v -0.008136 0.015803 0.062380
v -0.007272 0.009185 0.055818
v -0.006956 0.000143 0.053416
v -0.007272 -0.008899 0.055818
v -0.008136 -0.015517 0.062380
v -0.009316 -0.017940 0.071345
v -0.010496 -0.015517 0.080309
v -0.011360 -0.008899 0.086871
v 0.000125 0.000143 0.090046
v 0.000125 0.009185 0.087624
v 0.000125 0.015803 0.081005
v 0.000125 0.018226 0.071963
v 0.000125 0.015803 0.062922
v 0.000125 0.009185 0.056303
v 0.000125 0.000143 0.053880
v 0.000125 -0.008899 0.056303
v 0.000125 -0.015517 0.062922
v 0.000125 -0.017940 0.071963
v 0.000125 -0.015517 0.081005
v 0.000125 -0.008899 0.087624
v 0.011927 0.000143 0.089273
v 0.011610 0.009185 0.086871
v 0.010747 0.015803 0.080309
v 0.009566 0.018226 0.071345
v 0.008386 0.015803 0.062380
v 0.007522 0.009185 0.055818
v 0.007206 0.000143 0.053416
v 0.007522 -0.008899 0.055818
v 0.008386 -0.015517 0.062380
v 0.009566 -0.017940 0.071345
v 0.010747 -0.015517 0.080309
v 0.011610 -0.008899 0.086871
v 0.023526 0.000143 0.086966
v 0.022899 0.009185 0.084625
v 0.021186 0.015803 0.078232
v 0.018846 0.018226 0.069499
v 0.016506 0.015803 0.060765
v 0.014793 0.009185 0.054372
v 0.014166 0.000143 0.052032
v 0.014793 -0.008899 0.054372
v 0.016506 -0.015517 0.060765
v 0.018846 -0.017940 0.069499
v 0.021186 -0.015517 0.078232
v 0.022899 -0.008899 0.084625
v 0.034726 0.000143 0.083164
v 0.033799 0.009185 0.080926
v 0.031266 0.015803 0.074811
v 0.027806 0.018226 0.066457
v 0.024345 0.015803 0.058104
v 0.021813 0.009185 0.051989
v 0.020885 0.000143 0.049751
v 0.021813 -0.008899 0.051989
v 0.024345 -0.015517 0.058104
v 0.027806 -0.017940 0.066457
v 0.031266 -0.015517 0.074811
v 0.033799 -0.008899 0.080926
v 0.045333 0.000143 0.077933
v 0.044121 0.009185 0.075835
v 0.040812 0.015803 0.070103
v 0.036291 0.018226 0.062273
v 0.031771 0.015803 0.054442
v 0.028461 0.009185 0.048710
v 0.027250 0.000143 0.046612
v 0.028461 -0.008899 0.048710
v 0.031771 -0.015517 0.054442
v 0.036291 -0.017940 0.062273
v 0.040812 -0.015517 0.070103
v 0.044121 -0.008899 0.075835
v 0.055167 0.000143 0.071362
v 0.053692 0.009185 0.069440
v 0.049662 0.015803 0.064189
v 0.044158 0.018226 0.057016
v 0.038654 0.015803 0.049843
v 0.034625 0.009185 0.044592
v 0.033150 0.000143 0.042670
v 0.034625 -0.008899 0.044592
v 0.038654 -0.015517 0.049843
v 0.044158 -0.017940 0.057016
v 0.049662 -0.015517 0.064189
v 0.053692 -0.008899 0.069440
v 0.064058 0.000143 0.063564
v 0.062345 0.009185 0.061851
v 0.057665 0.015803 0.057171
v 0.051272 0.018226 0.050778
v 0.044878 0.015803 0.044384
v 0.040198 0.009185 0.039704
v 0.038485 0.000143 0.037991
v 0.040198 -0.008899 0.039704
v 0.044878 -0.015517 0.044384
v 0.051272 -0.017940 0.050778
v 0.057665 -0.015517 0.057171
v 0.062345 -0.008899 0.061851
v 0.071857 0.000143 0.054672
v 0.069934 0.009185 0.053198
v 0.064683 0.015803 0.049168
v 0.057510 0.018226 0.043664
v 0.050337 0.015803 0.038160
v 0.045086 0.009185 0.034131
v 0.043164 0.000143 0.032656
v 0.045086 -0.008899 0.034131
v 0.050337 -0.015517 0.038160
v 0.057510 -0.017940 0.043664
v 0.064683 -0.015517 0.049168
v 0.069934 -0.008899 0.053198
v 0.078427 0.000143 0.044839
v 0.076329 0.009185 0.043627
v 0.070597 0.015803 0.040318
v 0.062767 0.018226 0.035797
v 0.054937 0.015803 0.031276
v 0.049204 0.009185 0.027967
v 0.047106 0.000143 0.026756
v 0.049204 -0.008899 0.027967
v 0.054937 -0.015517 0.031276
v 0.062767 -0.017940 0.035797
v 0.070597 -0.015517 0.040318
v 0.076329 -0.008899 0.043627
v 0.083658 0.000143 0.034231
v 0.081420 0.009185 0.033304
v 0.075305 0.015803 0.030771
v 0.066951 0.018226 0.027311
v 0.058598 0.015803 0.023851
v 0.052483 0.009185 0.021318
v 0.050245 0.000143 0.020391
v 0.052483 -0.008899 0.021318
v 0.058598 -0.015517 0.023851
v 0.066951 -0.017940 0.027311
v 0.075305 -0.015517 0.030771
v 0.081420 -0.008899 0.033304
v 0.087460 0.000143 0.023032
v 0.085120 0.009185 0.022405
v 0.078726 0.015803 0.020692
v 0.069993 0.018226 0.018352
v 0.061259 0.015803 0.016012
v 0.054866 0.009185 0.014299
v 0.052526 0.000143 0.013672
v 0.054866 -0.008899 0.014299
v 0.061259 -0.015517 0.016012
v 0.069993 -0.017940 0.018352
v 0.078726 -0.015517 0.020692
v 0.085120 -0.008899 0.022405
v 0.089767 0.000143 0.011433
v 0.087365 0.009185 0.011116
v 0.080803 0.015803 0.010252
v 0.071853 0.018319 0.009063
v 0.062956 0.015998 0.007959
v 0.056312 0.009185 0.007028
v 0.053910 0.000143 0.006712
v 0.056312 -0.008899 0.007028
v 0.062874 -0.015517 0.007892
v 0.071839 -0.017940 0.009072
v 0.080803 -0.015517 0.010252
v 0.087365 -0.008899 0.011116
v 0.085120 0.009185 0.022405
v 0.078726 0.015803 0.020692
v 0.080803 0.015803 0.010252
v 0.087365 0.009185 0.011116
v 0.066014 0.006972 0.008305
v 0.068099 0.007188 0.008580
v 0.058029 0.014854 0.022865
v 0.057981 0.014908 0.022841
v 0.058029 0.015272 0.023807
v 0.057981 0.015325 0.023783
v 0.057360 0.014352 0.023087
v 0.057312 0.014406 0.023063
v 0.057360 0.014770 0.024029
v 0.057312 0.014823 0.024005
v 0.061259 0.015803 -0.016750
v 0.054866 0.009185 -0.015037
vn 0.9148 0.2583 -0.3105
vn 0.6703 0.7063 -0.2275
vn 0.2456 0.9658 -0.0834
vn -0.2456 0.9658 0.0834
vn -0.6703 0.7063 0.2275
vn -0.9148 0.2583 0.3105
vn -0.9148 -0.2583 0.3105
vn -0.6703 -0.7063 0.2275
vn -0.2456 -0.9658 0.0834
vn 0.2456 -0.9658 -0.0834
vn 0.6703 -0.7063 -0.2275
vn 0.9148 -0.2583 -0.3105
vn 0.8664 0.2583 -0.4273
vn 0.6349 0.7063 -0.3131
vn 0.2326 0.9658 -0.1147
vn -0.2326 0.9658 0.1147
vn -0.6349 0.7063 0.3131
vn -0.8664 0.2583 0.4273
vn -0.8664 -0.2583 0.4273
vn -0.6349 -0.7063 0.3131
vn -0.2326 -0.9658 0.1147
vn 0.2326 -0.9658 -0.1147
vn 0.6349 -0.7063 -0.3131
vn 0.8664 -0.2583 -0.4273
vn 0.8033 0.2583 -0.5367
vn 0.5886 0.7063 -0.3933
vn 0.2156 0.9658 -0.1441
vn -0.2156 0.9658 0.1441
vn -0.5886 0.7063 0.3933
vn -0.8033 0.2583 0.5367
vn -0.8033 -0.2583 0.5367
vn -0.5886 -0.7063 0.3933
vn -0.2156 -0.9658 0.1441
vn 0.2156 -0.9658 -0.1441
vn 0.5886 -0.7063 -0.3933
vn 0.8033 -0.2583 -0.5367
vn 0.7263 0.2583 -0.6370
vn 0.5322 0.7063 -0.4667
vn 0.1950 0.9658 -0.1710
vn -0.1950 0.9658 0.1710
vn -0.5322 0.7063 0.4667
vn -0.7263 0.2583 0.6370
vn -0.7263 -0.2583 0.6370
vn -0.5322 -0.7063 0.4667
vn -0.1950 -0.9658 0.1710
vn 0.1950 -0.9658 -0.1710
vn 0.5322 -0.7063 -0.4667
vn 0.7263 -0.2583 -0.6370
vn 0.6370 0.2583 -0.7263
vn 0.4667 0.7063 -0.5322
vn 0.1710 0.9658 -0.1950
vn -0.1710 0.9658 0.1950
vn -0.4667 0.7063 0.5322
vn -0.6370 0.2583 0.7263
vn -0.6370 -0.2583 0.7263
vn -0.4667 -0.7063 0.5322
vn -0.1710 -0.9658 0.1950
vn 0.1710 -0.9658 -0.1950
vn 0.4667 -0.7063 -0.5322
vn 0.6370 -0.2583 -0.7263
vn 0.5367 0.2583 -0.8033
vn 0.3933 0.7063 -0.5886
vn 0.1441 0.9658 -0.2156
vn -0.1441 0.9658 0.2156
vn -0.3933 0.7063 0.5886
vn -0.5367 0.2583 0.8033
vn -0.5367 -0.2583 0.8033
vn -0.3933 -0.7063 0.5886
vn -0.1441 -0.9658 0.2156
vn 0.1441 -0.9658 -0.2156
vn 0.3933 -0.7063 -0.5886
vn 0.5367 -0.2583 -0.8033
vn 0.4273 0.2583 -0.8664
vn 0.3131 0.7063 -0.6349
vn 0.1147 0.9658 -0.2326
vn -0.1147 0.9658 0.2326
vn -0.3131 0.7063 0.6349
vn -0.4273 0.2583 0.8664
vn -0.4273 -0.2583 0.8664
vn -0.3131 -0.7063 0.6349
vn -0.1147 -0.9658 0.2326
vn 0.1147 -0.9658 -0.2326
vn 0.3131 -0.7063 -0.6349
vn 0.4273 -0.2583 -0.8664
vn 0.3105 0.2583 -0.9148
vn 0.2275 0.7063 -0.6703
vn 0.0834 0.9658 -0.2456
vn -0.0834 0.9658 0.2456
vn -0.2275 0.7063 0.6703
vn -0.3105 0.2583 0.9148
vn -0.3105 -0.2583 0.9148
vn -0.2275 -0.7063 0.6703
vn -0.0834 -0.9658 0.2456
vn 0.0834 -0.9658 -0.2456
vn 0.2275 -0.7063 -0.6703
vn 0.3105 -0.2583 -0.9148
vn 0.1885 0.2583 -0.9475
vn 0.1381 0.7063 -0.6943
vn 0.0506 0.9658 -0.2544
vn -0.0506 0.9658 0.2544
vn -0.1381 0.7063 0.6943
vn -0.1885 0.2583 0.9475
vn -0.1885 -0.2583 0.9475
vn -0.1381 -0.7063 0.6943
vn -0.0506 -0.9658 0.2544
vn 0.0506 -0.9658 -0.2544
vn 0.1381 -0.7063 -0.6943
vn 0.1885 -0.2583 -0.9475
vn 0.0632 0.2583 -0.9640
vn 0.0463 0.7063 -0.7063
vn 0.0170 0.9658 -0.2588
vn -0.0170 0.9658 0.2588
vn -0.0463 0.7063 0.7063
vn -0.0632 0.2583 0.9640
vn -0.0632 -0.2583 0.9640
vn -0.0463 -0.7063 0.7063
vn -0.0170 -0.9658 0.2588
vn 0.0170 -0.9658 -0.2588
vn 0.0463 -0.7063 -0.7063
vn 0.0632 -0.2583 -0.9640
vn -0.0632 0.2583 -0.9640
vn -0.0463 0.7063 -0.7063
vn -0.0170 0.9658 -0.2588
vn 0.0170 0.9658 0.2588
vn 0.0463 0.7063 0.7063
vn 0.0632 0.2583 0.9640
vn 0.0632 -0.2583 0.9640
vn 0.0463 -0.7063 0.7063
vn 0.0170 -0.9658 0.2588
vn -0.0170 -0.9658 -0.2588
vn -0.0463 -0.7063 -0.7063
vn -0.0632 -0.2583 -0.9640
vn -0.1885 0.2583 -0.9475
vn -0.1381 0.7063 -0.6943
vn -0.0506 0.9658 -0.2544
vn 0.0506 0.9658 0.2544
vn 0.1381 0.7063 0.6943
vn 0.1885 0.2583 0.9475
vn 0.1885 -0.2583 0.9475
vn 0.1381 -0.7063 0.6943
vn 0.0506 -0.9658 0.2544
vn -0.0506 -0.9658 -0.2544
vn -0.1381 -0.7063 -0.6943
vn -0.1885 -0.2583 -0.9475
vn -0.3105 0.2583 -0.9148
vn -0.2275 0.7063 -0.6703
vn -0.0834 0.9658 -0.2456
vn 0.0834 0.9658 0.2456
vn 0.2275 0.7063 0.6703
vn 0.3105 0.2583 0.9148
vn 0.3105 -0.2583 0.9148
vn 0.2275 -0.7063 0.6703
vn 0.0834 -0.9658 0.2456
vn -0.0834 -0.9658 -0.2456
vn -0.2275 -0.7063 -0.6703
vn -0.3105 -0.2583 -0.9148
vn -0.4273 0.2583 -0.8664
vn -0.3131 0.7063 -0.6349
vn -0.1147 0.9658 -0.2326
vn 0.1147 0.9658 0.2326
vn 0.3131 0.7063 0.6349
vn 0.4273 0.2583 0.8664
vn 0.4273 -0.2583 0.8664
vn 0.3131 -0.7063 0.6349
vn 0.1147 -0.9658 0.2326
vn -0.1147 -0.9658 -0.2326
vn -0.3131 -0.7063 -0.6349
vn -0.4273 -0.2583 -0.8664
vn -0.5367 0.2583 -0.8033
vn -0.3933 0.7063 -0.5886
vn -0.1441 0.9658 -0.2156
vn 0.1441 0.9658 0.2156
vn 0.3933 0.7063 0.5886
vn 0.5367 0.2583 0.8033
vn 0.5367 -0.2583 0.8033
vn 0.3933 -0.7063 0.5886
vn 0.1441 -0.9658 0.2156
vn -0.1441 -0.9658 -0.2156
vn -0.3933 -0.7063 -0.5886
vn -0.5367 -0.2583 -0.8033
vn -0.6370 0.2583 -0.7263
vn -0.4667 0.7063 -0.5322
vn -0.1710 0.9658 -0.1950
vn 0.1710 0.9658 0.1950
vn 0.4667 0.7063 0.5322
vn 0.6370 0.2583 0.7263
vn 0.6370 -0.2583 0.7263
vn 0.4667 -0.7063 0.5322
vn 0.1710 -0.9658 0.1950
vn -0.1710 -0.9658 -0.1950
vn -0.4667 -0.7063 -0.5322
vn -0.6370 -0.2583 -0.7263
vn -0.7263 0.2583 -0.6370
vn -0.5322 0.7063 -0.4667
vn -0.1950 0.9658 -0.1710
vn 0.1950 0.9658 0.1710
vn 0.5322 0.7063 0.4667
vn 0.7263 0.2583 0.6370
vn 0.7263 -0.2583 0.6370
vn 0.5322 -0.7063 0.4667
vn 0.1950 -0.9658 0.1710
vn -0.1950 -0.9658 -0.1710
vn -0.5322 -0.7063 -0.4667
vn -0.7263 -0.2583 -0.6370
vn -0.8033 0.2583 -0.5367
vn -0.5886 0.7063 -0.3933
vn -0.2156 0.9658 -0.1441
vn 0.2156 0.9658 0.1441
vn 0.5886 0.7063 0.3933
vn 0.8033 0.2583 0.5367
vn 0.8033 -0.2583 0.5367
vn 0.5886 -0.7063 0.3933
vn 0.2156 -0.9658 0.1441
vn -0.2156 -0.9658 -0.1441
vn -0.5886 -0.7063 -0.3933
vn -0.8033 -0.2583 -0.5367
vn -0.8664 0.2583 -0.4273
vn -0.6349 0.7063 -0.3131
vn -0.2326 0.9658 -0.1147
vn 0.2326 0.9658 0.1147
vn 0.6349 0.7063 0.3131
vn 0.8664 0.2583 0.4273
vn 0.8664 -0.2583 0.4273
vn 0.6349 -0.7063 0.3131
vn 0.2326 -0.9658 0.1147
vn -0.2326 -0.9658 -0.1147
vn -0.6349 -0.7063 -0.3131
vn -0.8664 -0.2583 -0.4273
vn -0.9148 0.2583 -0.3105
vn -0.6703 0.7063 -0.2275
vn -0.2456 0.9658 -0.0834
vn 0.2456 0.9658 0.0834
vn 0.6703 0.7063 0.2275
vn 0.9148 0.2583 0.3105
vn 0.9148 -0.2583 0.3105
vn 0.6703 -0.7063 0.2275
vn 0.2456 -0.9658 0.0834
vn -0.2456 -0.9658 -0.0834
vn -0.6703 -0.7063 -0.2275
vn -0.9148 -0.2583 -0.3105
vn -0.9475 0.2583 -0.1885
vn -0.6943 0.7063 -0.1381
vn -0.2544 0.9658 -0.0506
vn 0.2544 0.9658 0.0506
vn 0.6943 0.7063 0.1381
vn 0.9475 0.2583 0.1885
vn 0.9475 -0.2583 0.1885
vn 0.6943 -0.7063 0.1381
vn 0.2544 -0.9658 0.0506
vn -0.2544 -0.9658 -0.0506
vn -0.6943 -0.7063 -0.1381
vn -0.9475 -0.2583 -0.1885
vn 0.2582 0.9645 0.0561
vn -0.2531 0.9668 -0.0359
vn -0.6978 0.7036 -0.1342
vn -0.0000 1.0000 -0.0000
vn 0.7726 0.5804 -0.2573
vn -0.0000 0.4052 0.9142
vn -0.7726 -0.5804 0.2572
vn -0.0000 -0.4052 -0.9142
vn 0.1303 0.0003 -0.9915
vn 0.2588 -0.0000 0.9659
vn -0.2588 -0.0000 -0.9659
vn -0.1305 -0.0000 0.9914
vt 0.541667 0.500000
vt 0.562500 0.500000
vt 0.562500 0.583333
vt 0.541667 0.583333
vt 0.562500 0.666667
vt 0.541667 0.666667
vt 0.562500 0.750000
vt 0.541667 0.750000
vt 0.562500 0.833333
vt 0.541667 0.833333
vt 0.562500 0.916667
vt 0.541667 0.916667
vt 0.562500 1.000000
vt 0.541667 1.000000
vt 0.541667 0.000000
vt 0.562500 0.000000
vt 0.562500 0.083333
vt 0.541667 0.083333
vt 0.562500 0.166667
vt 0.541667 0.166667
vt 0.562500 0.250000
vt 0.541667 0.250000
vt 0.562500 0.333333
vt 0.541667 0.333333
vt 0.562500 0.416667
vt 0.541667 0.416667
vt 0.583333 0.500000
vt 0.583333 0.583333
vt 0.583333 0.666667
vt 0.583333 0.750000
vt 0.583333 0.833333
vt 0.583333 0.916667
vt 0.583333 1.000000
vt 0.583333 0.000000
vt 0.583333 0.083333
vt 0.583333 0.166667
vt 0.583333 0.250000
vt 0.583333 0.333333
vt 0.583333 0.416667
vt 0.604167 0.500000
vt 0.604167 0.583333
vt 0.604167 0.666667
vt 0.604167 0.750000
vt 0.604167 0.833333
vt 0.604167 0.916667
vt 0.604167 1.000000
vt 0.604167 0.000000
vt 0.604167 0.083333
vt 0.604167 0.166667
vt 0.604167 0.250000
vt 0.604167 0.333333
vt 0.604167 0.416667
vt 0.625000 0.500000
vt 0.625000 0.583333
vt 0.625000 0.666667
vt 0.625000 0.750000
vt 0.625000 0.833333
vt 0.625000 0.916667
vt 0.625000 1.000000
vt 0.625000 0.000000
vt 0.625000 0.083333
vt 0.625000 0.166667
vt 0.625000 0.250000
vt 0.625000 0.333333
vt 0.625000 0.416667
vt 0.645833 0.500000
vt 0.645833 0.583333
vt 0.645833 0.666667
vt 0.645833 0.750000
vt 0.645833 0.833333
vt 0.645833 0.916667
vt 0.645833 1.000000
vt 0.645833 0.000000
vt 0.645833 0.083333
vt 0.645833 0.166667
vt 0.645833 0.250000
vt 0.645833 0.333333
vt 0.645833 0.416667
vt 0.666667 0.500000
vt 0.666667 0.583333
vt 0.666667 0.666667
vt 0.666667 0.750000
vt 0.666667 0.833333
vt 0.666667 0.916667
vt 0.666667 1.000000
vt 0.666667 0.000000
vt 0.666667 0.083333
vt 0.666667 0.166667
vt 0.666667 0.250000
vt 0.666667 0.333333
vt 0.666667 0.416667
vt 0.687500 0.500000
vt 0.687500 0.583333
vt 0.687500 0.666667
vt 0.687500 0.750000
vt 0.687500 0.833333
vt 0.687500 0.916667
vt 0.687500 1.000000
vt 0.687500 0.000000
vt 0.687500 0.083333
vt 0.687500 0.166667
vt 0.687500 0.250000
vt 0.687500 0.333333
vt 0.687500 0.416667
vt 0.708333 0.500000
vt 0.708333 0.583333
vt 0.708333 0.666667
vt 0.708333 0.750000
vt 0.708333 0.833333
vt 0.708333 0.916667
vt 0.708333 1.000000
vt 0.708333 0.000000
vt 0.708333 0.083333
vt 0.708333 0.166667
vt 0.708333 0.250000
vt 0.708333 0.333333
vt 0.708333 0.416667
vt 0.729167 0.500000
vt 0.729167 0.583333
vt 0.729167 0.666667
vt 0.729167 0.750000
vt 0.729167 0.833333
vt 0.729167 0.916667
vt 0.729167 1.000000
vt 0.729167 0.000000
vt 0.729167 0.083333
vt 0.729167 0.166667
vt 0.729167 0.250000
vt 0.729167 0.333333
vt 0.729167 0.416667
vt 0.750000 0.500000
vt 0.750000 0.583333
vt 0.750000 0.666667
vt 0.750000 0.750000
vt 0.750000 0.833333
vt 0.750000 0.916667
vt 0.750000 1.000000
vt 0.750000 0.000000
vt 0.750000 0.083333
vt 0.750000 0.166667
vt 0.750000 0.250000
vt 0.750000 0.333333
vt 0.750000 0.416667
vt 0.770833 0.500000
vt 0.770833 0.583333
vt 0.770833 0.666667
vt 0.770833 0.750000
vt 0.770833 0.833333
vt 0.770833 0.916667
vt 0.770833 1.000000
vt 0.770833 0.000000
vt 0.770833 0.083333
vt 0.770833 0.166667
vt 0.770833 0.250000
vt 0.770833 0.333333
vt 0.770833 0.416667
vt 0.791667 0.500000
vt 0.791667 0.583333
vt 0.791667 0.666667
vt 0.791667 0.750000
vt 0.791667 0.833333
vt 0.791667 0.916667
vt 0.791667 1.000000
vt 0.791667 0.000000
vt 0.791667 0.083333
vt 0.791667 0.166667
vt 0.791667 0.250000
vt 0.791667 0.333333
vt 0.791667 0.416667
vt 0.812500 0.500000
vt 0.812500 0.583333
vt 0.812500 0.666667
vt 0.812500 0.750000
vt 0.812500 0.833333
vt 0.812500 0.916667
vt 0.812500 1.000000
vt 0.812500 0.000000
vt 0.812500 0.083333
vt 0.812500 0.166667
vt 0.812500 0.250000
vt 0.812500 0.333333
vt 0.812500 0.416667
vt 0.833333 0.500000
vt 0.833333 0.583333
vt 0.833333 0.666667
vt 0.833333 0.750000
vt 0.833333 0.833333
vt 0.833333 0.916667
vt 0.833333 1.000000
vt 0.833333 0.000000
vt 0.833333 0.083333
vt 0.833333 0.166667
vt 0.833333 0.250000
vt 0.833333 0.333333
vt 0.833333 0.416667
vt 0.854167 0.500000
vt 0.854167 0.583333
vt 0.854167 0.666667
vt 0.854167 0.750000
vt 0.854167 0.833333
vt 0.854167 0.916667
vt 0.854167 1.000000
vt 0.854167 0.000000
vt 0.854167 0.083333
vt 0.854167 0.166667
vt 0.854167 0.250000
vt 0.854167 0.333333
vt 0.854167 0.416667
vt 0.875000 0.500000
vt 0.875000 0.583333
vt 0.875000 0.666667
vt 0.875000 0.750000
vt 0.875000 0.833333
vt 0.875000 0.916667
vt 0.875000 1.000000
vt 0.875000 0.000000
vt 0.875000 0.083333
vt 0.875000 0.166667
vt 0.875000 0.250000
vt 0.875000 0.333333
vt 0.875000 0.416667
vt 0.895833 0.500000
vt 0.895833 0.583333
vt 0.895833 0.666667
vt 0.895833 0.750000
vt 0.895833 0.833333
vt 0.895833 0.916667
vt 0.895833 1.000000
vt 0.895833 0.000000
vt 0.895833 0.083333
vt 0.895833 0.166667
vt 0.895833 0.250000
vt 0.895833 0.333333
vt 0.895833 0.416667
vt 0.916667 0.500000
vt 0.916667 0.583333
vt 0.916667 0.666667
vt 0.916667 0.750000
vt 0.916667 0.833333
vt 0.916667 0.916667
vt 0.916667 1.000000
vt 0.916667 0.000000
vt 0.916667 0.083333
vt 0.916667 0.166667
vt 0.916667 0.250000
vt 0.916667 0.333333
vt 0.916667 0.416667
vt 0.937500 0.500000
vt 0.937500 0.583333
vt 0.937500 0.666667
vt 0.937500 0.750000
vt 0.937500 0.833333
vt 0.937500 0.916667
vt 0.937500 1.000000
vt 0.937500 0.000000
vt 0.937500 0.083333
vt 0.937500 0.166667
vt 0.937500 0.250000
vt 0.937500 0.333333
vt 0.937500 0.416667
vt 0.958333 0.500000
vt 0.958333 0.583333
vt 0.958333 0.666667
vt 0.958333 0.750000
vt 0.958333 0.833333
vt 0.958333 0.916667
vt 0.958333 1.000000
vt 0.958333 0.000000
vt 0.958333 0.083333
vt 0.958333 0.166667
vt 0.958333 0.250000
vt 0.958333 0.333333
vt 0.958333 0.416667
vt 0.979167 0.500000
vt 0.979167 0.583333
vt 0.979167 0.666667
vt 0.979167 0.750000
vt 0.979167 0.833333
vt 0.979167 0.916667
vt 0.979167 1.000000
vt 0.979167 0.000000
vt 0.979167 0.083333
vt 0.979167 0.166667
vt 0.979167 0.250000
vt 0.979167 0.333333
vt 0.979167 0.416667
vt 0.041667 0.500000
vt 0.062500 0.500000
vt 0.062500 0.583333
vt 0.041667 0.583333
vt 0.062500 0.666667
vt 0.041667 0.666667
vt 0.062500 0.750000
vt 0.041667 0.750000
vt 0.062500 0.833333
vt 0.041667 0.833333
vt 0.062500 0.916667
vt 0.041667 0.916667
vt 0.062500 1.000000
vt 0.041667 1.000000
vt 0.041667 0.000000
vt 0.062500 0.000000
vt 0.062500 0.083333
vt 0.041667 0.083333
vt 0.062500 0.166667
vt 0.041667 0.166667
vt 0.062500 0.250000
vt 0.041667 0.250000
vt 0.062500 0.333333
vt 0.041667 0.333333
vt 0.062500 0.416667
vt 0.041667 0.416667
vt 0.083333 0.500000
vt 0.083333 0.583333
vt 0.083333 0.666667
vt 0.083333 0.750000
vt 0.083333 0.833333
vt 0.083333 0.916667
vt 0.083333 1.000000
vt 0.083333 0.000000
vt 0.083333 0.083333
vt 0.083333 0.166667
vt 0.083333 0.250000
vt 0.083333 0.333333
vt 0.083333 0.416667
vt 0.104167 0.500000
vt 0.104167 0.583333
vt 0.104167 0.666667
vt 0.104167 0.750000
vt 0.104167 0.833333
vt 0.104167 0.916667
vt 0.104167 1.000000
vt 0.104167 0.000000
vt 0.104167 0.083333
vt 0.104167 0.166667
vt 0.104167 0.250000
vt 0.104167 0.333333
vt 0.104167 0.416667
vt 0.125000 0.500000
vt 0.125000 0.583333
vt 0.125000 0.666667
vt 0.125000 0.750000
vt 0.125000 0.833333
vt 0.125000 0.916667
vt 0.125000 1.000000
vt 0.125000 0.000000
vt 0.125000 0.083333
vt 0.125000 0.166667
vt 0.125000 0.250000
vt 0.125000 0.333333
vt 0.125000 0.416667
vt 0.145833 0.500000
vt 0.145833 0.583333
vt 0.145833 0.666667
vt 0.145833 0.750000
vt 0.145833 0.833333
vt 0.145833 0.916667
vt 0.145833 1.000000
vt 0.145833 0.000000
vt 0.145833 0.083333
vt 0.145833 0.166667
vt 0.145833 0.250000
vt 0.145833 0.333333
vt 0.145833 0.416667
vt 0.166667 0.500000
vt 0.166667 0.583333
vt 0.166667 0.666667
vt 0.166667 0.750000
vt 0.166667 0.833333
vt 0.166667 0.916667
vt 0.166667 1.000000
vt 0.166667 0.000000
vt 0.166667 0.083333
vt 0.166667 0.166667
vt 0.166667 0.250000
vt 0.166667 0.333333
vt 0.166667 0.416667
vt 0.187500 0.500000
vt 0.187500 0.583333
vt 0.187500 0.666667
vt 0.187500 0.750000
vt 0.187500 0.833333
vt 0.187500 0.916667
vt 0.187500 1.000000
vt 0.187500 0.000000
vt 0.187500 0.083333
vt 0.187500 0.166667
vt 0.187500 0.250000
vt 0.187500 0.333333
vt 0.187500 0.416667
vt 0.208333 0.500000
vt 0.208333 0.583333
vt 0.208333 0.666667
vt 0.208333 0.750000
vt 0.208333 0.833333
vt 0.208333 0.916667
vt 0.208333 1.000000
vt 0.208333 0.000000
vt 0.208333 0.083333
vt 0.208333 0.166667
vt 0.208333 0.250000
vt 0.208333 0.333333
vt 0.208333 0.416667
vt 0.229167 0.500000
vt 0.229167 0.583333
vt 0.229167 0.666667
vt 0.229167 0.750000
vt 0.229167 0.833333
vt 0.229167 0.916667
vt 0.229167 1.000000
vt 0.229167 0.000000
vt 0.229167 0.083333
vt 0.229167 0.166667
vt 0.229167 0.250000
vt 0.229167 0.333333
vt 0.229167 0.416667
vt 0.250000 0.500000
vt 0.250000 0.583333
vt 0.250000 0.666667
vt 0.250000 0.750000
vt 0.250000 0.833333
vt 0.250000 0.916667
vt 0.250000 1.000000
vt 0.250000 0.000000
vt 0.250000 0.083333
vt 0.250000 0.166667
vt 0.250000 0.250000
vt 0.250000 0.333333
vt 0.250000 0.416667
vt 0.270833 0.500000
vt 0.270833 0.583333
vt 0.270833 0.666667
vt 0.270833 0.750000
vt 0.270833 0.833333
vt 0.270833 0.916667
vt 0.270833 1.000000
vt 0.270833 0.000000
vt 0.270833 0.083333
vt 0.270833 0.166667
vt 0.270833 0.250000
vt 0.270833 0.333333
vt 0.270833 0.416667
vt 0.291667 0.500000
vt 0.291667 0.583333
vt 0.291667 0.666667
vt 0.291667 0.750000
vt 0.291667 0.833333
vt 0.291667 0.916667
vt 0.291667 1.000000
vt 0.291667 0.000000
vt 0.291667 0.083333
vt 0.291667 0.166667
vt 0.291667 0.250000
vt 0.291667 0.333333
vt 0.291667 0.416667
vt 0.312500 0.500000
vt 0.312500 0.583333
vt 0.312500 0.666667
vt 0.312500 0.750000
vt 0.312500 0.833333
vt 0.312500 0.916667
vt 0.312500 1.000000
vt 0.312500 0.000000
vt 0.312500 0.083333
vt 0.312500 0.166667
vt 0.312500 0.250000
vt 0.312500 0.333333
vt 0.312500 0.416667
vt 0.333333 0.500000
vt 0.333333 0.583333
vt 0.333333 0.666667
vt 0.333333 0.750000
vt 0.333333 0.833333
vt 0.333333 0.916667
vt 0.333333 1.000000
vt 0.333333 0.000000
vt 0.333333 0.083333
vt 0.333333 0.166667
vt 0.333333 0.250000
vt 0.333333 0.333333
vt 0.333333 0.416667
vt 0.354167 0.500000
vt 0.354167 0.583333
vt 0.354167 0.666667
vt 0.354167 0.750000
vt 0.354167 0.833333
vt 0.354167 0.916667
vt 0.354167 1.000000
vt 0.354167 0.000000
vt 0.354167 0.083333
vt 0.354167 0.166667
vt 0.354167 0.250000
vt 0.354167 0.333333
vt 0.354167 0.416667
vt 0.375000 0.500000
vt 0.375000 0.583333
vt 0.375000 0.666667
vt 0.375000 0.750000
vt 0.375000 0.833333
vt 0.375000 0.916667
vt 0.375000 1.000000
vt 0.375000 0.000000
vt 0.375000 0.083333
vt 0.375000 0.166667
vt 0.375000 0.250000
vt 0.375000 0.333333
vt 0.375000 0.416667
vt 0.395833 0.500000
vt 0.395833 0.583333
vt 0.395833 0.666667
vt 0.395833 0.750000
vt 0.395833 0.833333
vt 0.395833 0.916667
vt 0.395833 1.000000
vt 0.395833 0.000000
vt 0.395833 0.083333
vt 0.395833 0.166667
vt 0.395833 0.250000
vt 0.395833 0.333333
vt 0.395833 0.416667
vt 0.416667 0.500000
vt 0.416667 0.583333
vt 0.416667 0.666667
vt 0.416667 0.750000
vt 0.416667 0.833333
vt 0.416667 0.916667
vt 0.416667 1.000000
vt 0.416667 0.000000
vt 0.416667 0.083333
vt 0.416667 0.166667
vt 0.416667 0.250000
vt 0.416667 0.333333
vt 0.416667 0.416667
vt 0.437500 0.500000
vt 0.437500 0.583333
vt 0.437500 0.666667
vt 0.437500 0.750000
vt 0.437500 0.833333
vt 0.437500 0.916667
vt 0.437500 1.000000
vt 0.437500 0.000000
vt 0.437500 0.083333
vt 0.437500 0.166667
vt 0.437500 0.250000
vt 0.437500 0.333333
vt 0.437500 0.416667
vt 0.458333 0.500000
vt 0.458333 0.583333
vt 0.458333 0.666667
vt 0.458333 0.750000
vt 0.458333 0.833333
vt 0.458333 0.916667
vt 0.458333 1.000000
vt 0.458333 0.000000
vt 0.458333 0.083333
vt 0.458333 0.166667
vt 0.458333 0.250000
vt 0.458333 0.333333
vt 0.458333 0.416667
vt 0.479167 0.500000
vt 0.479167 0.583333
vt 0.479167 0.666667
vt 0.479167 0.750000
vt 0.479167 0.833333
vt 0.479167 0.916667
vt 0.479167 1.000000
vt 0.479167 0.000000
vt 0.479167 0.083333
vt 0.479167 0.166667
vt 0.479167 0.250000
vt 0.479167 0.333333
vt 0.479167 0.416667
vt 0.375000 0.000000
vt 0.625000 0.000000
vt 0.000000 0.000000
s 0
f 1/1/1 13/2/1 14/3/1 2/4/1
f 2/4/2 14/3/2 15/5/2 3/6/2
f 3/6/3 15/5/3 16/7/3 4/8/3
f 4/8/4 16/7/4 17/9/4 5/10/4
f 5/10/5 17/9/5 18/11/5 6/12/5
f 6/12/6 18/11/6 19/13/6 7/14/6
f 7/15/7 19/16/7 20/17/7 8/18/7
f 8/18/8 20/17/8 21/19/8 9/20/8
f 9/20/9 21/19/9 22/21/9 10/22/9
f 10/22/10 22/21/10 23/23/10 11/24/10
f 11/24/11 23/23/11 24/25/11 12/26/11
f 12/26/12 24/25/12 13/2/12 1/1/12
f 13/2/13 25/27/13 26/28/13 14/3/13
f 14/3/14 26/28/14 27/29/14 15/5/14
f 15/5/15 27/29/15 28/30/15 16/7/15
f 16/7/16 28/30/16 29/31/16 17/9/16
f 17/9/17 29/31/17 30/32/17 18/11/17
f 18/11/18 30/32/18 31/33/18 19/13/18
f 19/16/19 31/34/19 32/35/19 20/17/19
f 20/17/20 32/35/20 33/36/20 21/19/20
f 21/19/21 33/36/21 34/37/21 22/21/21
f 22/21/22 34/37/22 35/38/22 23/23/22
f 23/23/23 35/38/23 36/39/23 24/25/23
f 24/25/24 36/39/24 25/27/24 13/2/24
f 25/27/25 37/40/25 38/41/25 26/28/25
f 26/28/26 38/41/26 39/42/26 27/29/26
f 27/29/27 39/42/27 40/43/27 28/30/27
f 28/30/28 40/43/28 41/44/28 29/31/28
f 29/31/29 41/44/29 42/45/29 30/32/29
f 30/32/30 42/45/30 43/46/30 31/33/30
f 31/34/31 43/47/31 44/48/31 32/35/31
f 32/35/32 44/48/32 45/49/32 33/36/32
f 33/36/33 45/49/33 46/50/33 34/37/33
f 34/37/34 46/50/34 47/51/34 35/38/34
f 35/38/35 47/51/35 48/52/35 36/39/35
f 36/39/36 48/52/36 37/40/36 25/27/36
f 37/40/37 49/53/37 50/54/37 38/41/37
f 38/41/38 50/54/38 51/55/38 39/42/38
f 39/42/39 51/55/39 52/56/39 40/43/39
f 40/43/40 52/56/40 53/57/40 41/44/40
f 41/44/41 53/57/41 54/58/41 42/45/41
f 42/45/42 54/58/42 55/59/42 43/46/42
f 43/47/43 55/60/43 56/61/43 44/48/43
f 44/48/44 56/61/44 57/62/44 45/49/44
f 45/49/45 57/62/45 58/63/45 46/50/45
f 46/50/46 58/63/46 59/64/46 47/51/46
f 47/51/47 59/64/47 60/65/47 48/52/47
f 48/52/48 60/65/48 49/53/48 37/40/48
f 49/53/49 61/66/49 62/67/49 50/54/49
f 50/54/50 62/67/50 63/68/50 51/55/50
f 51/55/51 63/68/51 64/69/51 52/56/51
f 52/56/52 64/69/52 65/70/52 53/57/52
f 53/57/53 65/70/53 66/71/53 54/58/53
f 54/58/54 66/71/54 67/72/54 55/59/54
f 55/60/55 67/73/55 68/74/55 56/61/55
f 56/61/56 68/74/56 69/75/56 57/62/56
f 57/62/57 69/75/57 70/76/57 58/63/57
f 58/63/58 70/76/58 71/77/58 59/64/58
f 59/64/59 71/77/59 72/78/59 60/65/59
f 60/65/60 72/78/60 61/66/60 49/53/60
f 61/66/61 73/79/61 74/80/61 62/67/61
f 62/67/62 74/80/62 75/81/62 63/68/62
f 63/68/63 75/81/63 76/82/63 64/69/63
f 64/69/64 76/82/64 77/83/64 65/70/64
f 65/70/65 77/83/65 78/84/65 66/71/65
f 66/71/66 78/84/66 79/85/66 67/72/66
f 67/73/67 79/86/67 80/87/67 68/74/67
f 68/74/68 80/87/68 81/88/68 69/75/68
f 69/75/69 81/88/69 82/89/69 70/76/69
f 70/76/70 82/89/70 83/90/70 71/77/70
f 71/77/71 83/90/71 84/91/71 72/78/71
f 72/78/72 84/91/72 73/79/72 61/66/72
f 73/79/73 85/92/73 86/93/73 74/80/73
f 74/80/74 86/93/74 87/94/74 75/81/74
f 75/81/75 87/94/75 88/95/75 76/82/75
f 76/82/76 88/95/76 89/96/76 77/83/76
f 77/83/77 89/96/77 90/97/77 78/84/77
f 78/84/78 90/97/78 91/98/78 79/85/78
f 79/86/79 91/99/79 92/100/79 80/87/79
f 80/87/80 92/100/80 93/101/80 81/88/80
f 81/88/81 93/101/81 94/102/81 82/89/81
f 82/89/82 94/102/82 95/103/82 83/90/82
f 83/90/83 95/103/83 96/104/83 84/91/83
f 84/91/84 96/104/84 85/92/84 73/79/84
f 85/92/85 97/105/85 98/106/85 86/93/85
f 86/93/86 98/106/86 99/107/86 87/94/86
f 87/94/87 99/107/87 100/108/87 88/95/87
f 88/95/88 100/108/88 101/109/88 89/96/88
f 89/96/89 101/109/89 102/110/89 90/97/89
f 90/97/90 102/110/90 103/111/90 91/98/90
f 91/99/91 103/112/91 104/113/91 92/100/91
f 92/100/92 104/113/92 105/114/92 93/101/92
f 93/101/93 105/114/93 106/115/93 94/102/93
f 94/102/94 106/115/94 107/116/94 95/103/94
f 95/103/95 107/116/95 108/117/95 96/104/95
f 96/104/96 108/117/96 97/105/96 85/92/96
f 97/105/97 109/118/97 110/119/97 98/106/97
f 98/106/98 110/119/98 111/120/98 99/107/98
f 99/107/99 111/120/99 112/121/99 100/108/99
f 100/108/100 112/121/100 113/122/100 101/109/100
f 101/109/101 113/122/101 114/123/101 102/110/101
f 102/110/102 114/123/102 115/124/102 103/111/102
f 103/112/103 115/125/103 116/126/103 104/113/103
f 104/113/104 116/126/104 117/127/104 105/114/104
f 105/114/105 117/127/105 118/128/105 106/115/105
f 106/115/106 118/128/106 119/129/106 107/116/106
f 107/116/107 119/129/107 120/130/107 108/117/107
f 108/117/108 120/130/108 109/118/108 97/105/108
f 109/118/109 121/131/109 122/132/109 110/119/109
f 110/119/110 122/132/110 123/133/110 111/120/110
f 111/120/111 123/133/111 124/134/111 112/121/111
f 112/121/112 124/134/112 125/135/112 113/122/112
f 113/122/113 125/135/113 126/136/113 114/123/113
f 114/123/114 126/136/114 127/137/114 115/124/114
f 115/125/115 127/138/115 128/139/115 116/126/115
f 116/126/116 128/139/116 129/140/116 117/127/116
f 117/127/117 129/140/117 130/141/117 118/128/117
f 118/128/118 130/141/118 131/142/118 119/129/118
f 119/129/119 131/142/119 132/143/119 120/130/119
f 120/130/120 132/143/120 121/131/120 109/118/120
f 121/131/121 133/144/121 134/145/121 122/132/121
f 122/132/122 134/145/122 135/146/122 123/133/122
f 123/133/123 135/146/123 136/147/123 124/134/123
f 124/134/124 136/147/124 137/148/124 125/135/124
f 125/135/125 137/148/125 138/149/125 126/136/125
f 126/136/126 138/149/126 139/150/126 127/137/126
f 127/138/127 139/151/127 140/152/127 128/139/127
f 128/139/128 140/152/128 141/153/128 129/140/128
f 129/140/129 141/153/129 142/154/129 130/141/129
f 130/141/130 142/154/130 143/155/130 131/142/130
f 131/142/131 143/155/131 144/156/131 132/143/131
f 132/143/132 144/156/132 133/144/132 121/131/132
f 133/144/133 145/157/133 146/158/133 134/145/133
f 134/145/134 146/158/134 147/159/134 135/146/134
f 135/146/135 147/159/135 148/160/135 136/147/135
f 136/147/136 148/160/136 149/161/136 137/148/136
f 137/148/137 149/161/137 150/162/137 138/149/137
f 138/149/138 150/162/138 151/163/138 139/150/138
f 139/151/139 151/164/139 152/165/139 140/152/139
f 140/152/140 152/165/140 153/166/140 141/153/140
f 141/153/141 153/166/141 154/167/141 142/154/141
f 142/154/142 154/167/142 155/168/142 143/155/142
f 143/155/143 155/168/143 156/169/143 144/156/143
f 144/156/144 156/169/144 145/157/144 133/144/144
f 145/157/145 157/170/145 158/171/145 146/158/145
f 146/158/146 158/171/146 159/172/146 147/159/146
f 147/159/147 159/172/147 160/173/147 148/160/147
f 148/160/148 160/173/148 161/174/148 149/161/148
f 149/161/149 161/174/149 162/175/149 150/162/149
f 150/162/150 162/175/150 163/176/150 151/163/150
f 151/164/151 163/177/151 164/178/151 152/165/151
f 152/165/152 164/178/152 165/179/152 153/166/152
f 153/166/153 165/179/153 166/180/153 154/167/153
f 154/167/154 166/180/154 167/181/154 155/168/154
f 155/168/155 167/181/155 168/182/155 156/169/155
f 156/169/156 168/182/156 157/170/156 145/157/156
f 157/170/157 169/183/157 170/184/157 158/171/157
f 158/171/158 170/184/158 171/185/158 159/172/158
f 159/172/159 171/185/159 172/186/159 160/173/159
f 160/173/160 172/186/160 173/187/160 161/174/160
f 161/174/161 173/187/161 174/188/161 162/175/161
f 162/175/162 174/188/162 175/189/162 163/176/162
f 163/177/163 175/190/163 176/191/163 164/178/163
f 164/178/164 176/191/164 177/192/164 165/179/164
f 165/179/165 177/192/165 178/193/165 166/180/165
f 166/180/166 178/193/166 179/194/166 167/181/166
f 167/181/167 179/194/167 180/195/167 168/182/167
f 168/182/168 180/195/168 169/183/168 157/170/168
f 169/183/169 181/196/169 182/197/169 170/184/169
f 170/184/170 182/197/170 183/198/170 171/185/170
f 171/185/171 183/198/171 184/199/171 172/186/171
f 172/186/172 184/199/172 185/200/172 173/187/172
f 173/187/173 185/200/173 186/201/173 174/188/173
f 174/188/174 186/201/174 187/202/174 175/189/174
f 175/190/175 187/203/175 188/204/175 176/191/175
f 176/191/176 188/204/176 189/205/176 177/192/176
f 177/192/177 189/205/177 190/206/177 178/193/177
f 178/193/178 190/206/178 191/207/178 179/194/178
f 179/194/179 191/207/179 192/208/179 180/195/179
f 180/195/180 192/208/180 181/196/180 169/183/180
f 181/196/181 193/209/181 194/210/181 182/197/181
f 182/197/182 194/210/182 195/211/182 183/198/182
f 183/198/183 195/211/183 196/212/183 184/199/183
f 184/199/184 196/212/184 197/213/184 185/200/184
f 185/200/185 197/213/185 198/214/185 186/201/185
f 186/201/186 198/214/186 199/215/186 187/202/186
f 187/203/187 199/216/187 200/217/187 188/204/187
f 188/204/188 200/217/188 201/218/188 189/205/188
f 189/205/189 201/218/189 202/219/189 190/206/189
f 190/206/190 202/219/190 203/220/190 191/207/190
f 191/207/191 203/220/191 204/221/191 192/208/191
f 192/208/192 204/221/192 193/209/192 181/196/192
f 193/209/193 205/222/193 206/223/193 194/210/193
f 194/210/194 206/223/194 207/224/194 195/211/194
f 195/211/195 207/224/195 208/225/195 196/212/195
f 196/212/196 208/225/196 209/226/196 197/213/196
f 197/213/197 209/226/197 210/227/197 198/214/197
f 198/214/198 210/227/198 211/228/198 199/215/198
f 199/216/199 211/229/199 212/230/199 200/217/199
f 200/217/200 212/230/200 213/231/200 201/218/200
f 201/218/201 213/231/201 214/232/201 202/219/201
f 202/219/202 214/232/202 215/233/202 203/220/202
f 203/220/203 215/233/203 216/234/203 204/221/203
f 204/221/204 216/234/204 205/222/204 193/209/204
f 205/222/205 217/235/205 218/236/205 206/223/205
f 206/223/206 218/236/206 219/237/206 207/224/206
f 207/224/207 219/237/207 220/238/207 208/225/207
f 208/225/208 220/238/208 221/239/208 209/226/208
f 209/226/209 221/239/209 222/240/209 210/227/209
f 210/227/210 222/240/210 223/241/210 211/228/210
f 211/229/211 223/242/211 224/243/211 212/230/211
f 212/230/212 224/243/212 225/244/212 213/231/212
f 213/231/213 225/244/213 226/245/213 214/232/213
f 214/232/214 226/245/214 227/246/214 215/233/214
f 215/233/215 227/246/215 228/247/215 216/234/215
f 216/234/216 228/247/216 217/235/216 205/222/216
f 217/235/217 229/248/217 230/249/217 218/236/217
f 218/236/218 230/249/218 231/250/218 219/237/218
f 219/237/219 231/250/219 232/251/219 220/238/219
f 220/238/220 232/251/220 233/252/220 221/239/220
f 221/239/221 233/252/221 234/253/221 222/240/221
f 222/240/222 234/253/222 235/254/222 223/241/222
f 223/242/223 235/255/223 236/256/223 224/243/223
f 224/243/224 236/256/224 237/257/224 225/244/224
f 225/244/225 237/257/225 238/258/225 226/245/225
f 226/245/226 238/258/226 239/259/226 227/246/226
f 227/246/227 239/259/227 240/260/227 228/247/227
f 228/247/228 240/260/228 229/248/228 217/235/228
f 229/248/229 241/261/229 242/262/229 230/249/229
f 230/249/230 242/262/230 243/263/230 231/250/230
f 231/250/231 243/263/231 244/264/231 232/251/231
f 232/251/232 244/264/232 245/265/232 233/252/232
f 233/252/233 245/265/233 246/266/233 234/253/233
f 234/253/234 246/266/234 247/267/234 235/254/234
f 235/255/235 247/268/235 248/269/235 236/256/235
f 236/256/236 248/269/236 249/270/236 237/257/236
f 237/257/237 249/270/237 250/271/237 238/258/237
f 238/258/238 250/271/238 251/272/238 239/259/238
f 239/259/239 251/272/239 252/273/239 240/260/239
f 240/260/240 252/273/240 241/261/240 229/248/240
f 241/261/241 253/274/241 254/275/241 242/262/241
f 242/262/242 254/275/242 255/276/242 243/263/242
f 243/263/243 255/276/243 256/277/243 244/264/243
f 244/264/244 256/277/244 257/278/244 245/265/244
f 245/265/245 257/278/245 258/279/245 246/266/245
f 246/266/246 258/279/246 259/280/246 247/267/246
f 247/268/247 259/281/247 260/282/247 248/269/247
f 248/269/248 260/282/248 261/283/248 249/270/248
f 249/270/249 261/283/249 262/284/249 250/271/249
f 250/271/250 262/284/250 263/285/250 251/272/250
f 251/272/251 263/285/251 264/286/251 252/273/251
f 252/273/252 264/286/252 253/274/252 241/261/252
f 265/287/6 277/288/6 278/289/6 266/290/6
f 266/290/5 278/289/5 279/291/5 267/292/5
f 267/292/4 279/291/4 280/293/4 268/294/4
f 268/294/3 280/293/3 281/295/3 269/296/3
f 269/296/2 281/295/2 282/297/2 270/298/2
f 270/298/1 282/297/1 283/299/1 271/300/1
f 271/301/12 283/302/12 284/303/12 272/304/12
f 272/304/11 284/303/11 285/305/11 273/306/11
f 273/306/10 285/305/10 286/307/10 274/308/10
f 274/308/9 286/307/9 287/309/9 275/310/9
f 275/310/8 287/309/8 288/311/8 276/312/8
f 276/312/7 288/311/7 277/288/7 265/287/7
f 277/288/18 289/313/18 290/314/18 278/289/18
f 278/289/17 290/314/17 291/315/17 279/291/17
f 279/291/16 291/315/16 292/316/16 280/293/16
f 280/293/15 292/316/15 293/317/15 281/295/15
f 281/295/14 293/317/14 294/318/14 282/297/14
f 282/297/13 294/318/13 295/319/13 283/299/13
f 283/302/24 295/320/24 296/321/24 284/303/24
f 284/303/23 296/321/23 297/322/23 285/305/23
f 285/305/22 297/322/22 298/323/22 286/307/22
f 286/307/21 298/323/21 299/324/21 287/309/21
f 287/309/20 299/324/20 300/325/20 288/311/20
f 288/311/19 300/325/19 289/313/19 277/288/19
f 289/313/30 301/326/30 302/327/30 290/314/30
f 290/314/29 302/327/29 303/328/29 291/315/29
f 291/315/28 303/328/28 304/329/28 292/316/28
f 292/316/27 304/329/27 305/330/27 293/317/27
f 293/317/26 305/330/26 306/331/26 294/318/26
f 294/318/25 306/331/25 307/332/25 295/319/25
f 295/320/36 307/333/36 308/334/36 296/321/36
f 296/321/35 308/334/35 309/335/35 297/322/35
f 297/322/34 309/335/34 310/336/34 298/323/34
f 298/323/33 310/336/33 311/337/33 299/324/33
f 299/324/32 311/337/32 312/338/32 300/325/32
f 300/325/31 312/338/31 301/326/31 289/313/31
f 301/326/42 313/339/42 314/340/42 302/327/42
f 302/327/41 314/340/41 315/341/41 303/328/41
f 303/328/40 315/341/40 316/342/40 304/329/40
f 304/329/39 316/342/39 317/343/39 305/330/39
f 305/330/38 317/343/38 318/344/38 306/331/38
f 306/331/37 318/344/37 319/345/37 307/332/37
f 307/333/48 319/346/48 320/347/48 308/334/48
f 308/334/47 320/347/47 321/348/47 309/335/47
f 309/335/46 321/348/46 322/349/46 310/336/46
f 310/336/45 322/349/45 323/350/45 311/337/45
f 311/337/44 323/350/44 324/351/44 312/338/44
f 312/338/43 324/351/43 313/339/43 301/326/43
f 313/339/54 325/352/54 326/353/54 314/340/54
f 314/340/53 326/353/53 327/354/53 315/341/53
f 315/341/52 327/354/52 328/355/52 316/342/52
f 316/342/51 328/355/51 329/356/51 317/343/51
f 317/343/50 329/356/50 330/357/50 318/344/50
f 318/344/49 330/357/49 331/358/49 319/345/49
f 319/346/60 331/359/60 332/360/60 320/347/60
f 320/347/59 332/360/59 333/361/59 321/348/59
f 321/348/58 333/361/58 334/362/58 322/349/58
f 322/349/57 334/362/57 335/363/57 323/350/57
f 323/350/56 335/363/56 336/364/56 324/351/56
f 324/351/55 336/364/55 325/352/55 313/339/55
f 325/352/66 337/365/66 338/366/66 326/353/66
f 326/353/65 338/366/65 339/367/65 327/354/65
f 327/354/64 339/367/64 340/368/64 328/355/64
f 328/355/63 340/368/63 341/369/63 329/356/63
f 329/356/62 341/369/62 342/370/62 330/357/62
f 330/357/61 342/370/61 343/371/61 331/358/61
f 331/359/72 343/372/72 344/373/72 332/360/72
f 332/360/71 344/373/71 345/374/71 333/361/71
f 333/361/70 345/374/70 346/375/70 334/362/70
f 334/362/69 346/375/69 347/376/69 335/363/69
f 335/363/68 347/376/68 348/377/68 336/364/68
f 336/364/67 348/377/67 337/365/67 325/352/67
f 337/365/78 349/378/78 350/379/78 338/366/78
f 338/366/77 350/379/77 351/380/77 339/367/77
f 339/367/76 351/380/76 352/381/76 340/368/76
f 340/368/75 352/381/75 353/382/75 341/369/75
f 341/369/74 353/382/74 354/383/74 342/370/74
f 342/370/73 354/383/73 355/384/73 343/371/73
f 343/372/84 355/385/84 356/386/84 344/373/84
f 344/373/83 356/386/83 357/387/83 345/374/83
f 345/374/82 357/387/82 358/388/82 346/375/82
f 346/375/81 358/388/81 359/389/81 347/376/81
f 347/376/80 359/389/80 360/390/80 348/377/80
f 348/377/79 360/390/79 349/378/79 337/365/79
f 349/378/90 361/391/90 362/392/90 350/379/90
f 350/379/89 362/392/89 363/393/89 351/380/89
f 351/380/88 363/393/88 364/394/88 352/381/88
f 352/381/87 364/394/87 365/395/87 353/382/87
f 353/382/86 365/395/86 366/396/86 354/383/86
f 354/383/85 366/396/85 367/397/85 355/384/85
f 355/385/96 367/398/96 368/399/96 356/386/96
f 356/386/95 368/399/95 369/400/95 357/387/95
f 357/387/94 369/400/94 370/401/94 358/388/94
f 358/388/93 370/401/93 371/402/93 359/389/93
f 359/389/92 371/402/92 372/403/92 360/390/92
f 360/390/91 372/403/91 361/391/91 349/378/91
f 361/391/102 373/404/102 374/405/102 362/392/102
f 362/392/101 374/405/101 375/406/101 363/393/101
f 363/393/100 375/406/100 376/407/100 364/394/100
f 364/394/99 376/407/99 377/408/99 365/395/99
f 365/395/98 377/408/98 378/409/98 366/396/98
f 366/396/97 378/409/97 379/410/97 367/397/97
f 367/398/108 379/411/108 380/412/108 368/399/108
f 368/399/107 380/412/107 381/413/107 369/400/107
f 369/400/106 381/413/106 382/414/106 370/401/106
f 370/401/105 382/414/105 383/415/105 371/402/105
f 371/402/104 383/415/104 384/416/104 372/403/104
f 372/403/103 384/416/103 373/404/103 361/391/103
f 373/404/114 385/417/114 386/418/114 374/405/114
f 374/405/113 386/418/113 387/419/113 375/406/113
f 375/406/112 387/419/112 388/420/112 376/407/112
f 376/407/111 388/420/111 389/421/111 377/408/111
f 377/408/110 389/421/110 390/422/110 378/409/110
f 378/409/109 390/422/109 391/423/109 379/410/109
f 379/411/120 391/424/120 392/425/120 380/412/120
f 380/412/119 392/425/119 393/426/119 381/413/119
f 381/413/118 393/426/118 394/427/118 382/414/118
f 382/414/117 394/427/117 395/428/117 383/415/117
f 383/415/116 395/428/116 396/429/116 384/416/116
f 384/416/115 396/429/115 385/417/115 373/404/115
f 385/417/126 397/430/126 398/431/126 386/418/126
f 386/418/125 398/431/125 399/432/125 387/419/125
f 387/419/124 399/432/124 400/433/124 388/420/124
f 388/420/123 400/433/123 401/434/123 389/421/123
f 389/421/122 401/434/122 402/435/122 390/422/122
f 390/422/121 402/435/121 403/436/121 391/423/121
f 391/424/132 403/437/132 404/438/132 392/425/132
f 392/425/131 404/438/131 405/439/131 393/426/131
f 393/426/130 405/439/130 406/440/130 394/427/130
f 394/427/129 406/440/129 407/441/129 395/428/129
f 395/428/128 407/441/128 408/442/128 396/429/128
f 396/429/127 408/442/127 397/430/127 385/417/127
f 397/430/138 409/443/138 410/444/138 398/431/138
f 398/431/137 410/444/137 411/445/137 399/432/137
f 399/432/136 411/445/136 412/446/136 400/433/136
f 400/433/135 412/446/135 413/447/135 401/434/135
f 401/434/134 413/447/134 414/448/134 402/435/134
f 402/435/133 414/448/133 415/449/133 403/436/133
f 403/437/144 415/450/144 416/451/144 404/438/144
f 404/438/143 416/451/143 417/452/143 405/439/143
f 405/439/142 417/452/142 418/453/142 406/440/142
f 406/440/141 418/453/141 419/454/141 407/441/141
f 407/441/140 419/454/140 420/455/140 408/442/140
f 408/442/139 420/455/139 409/443/139 397/430/139
f 409/443/150 421/456/150 422/457/150 410/444/150
f 410/444/149 422/457/149 423/458/149 411/445/149
f 411/445/148 423/458/148 424/459/148 412/446/148
f 412/446/147 424/459/147 425/460/147 413/447/147
f 413/447/146 425/460/146 426/461/146 414/448/146
f 414/448/145 426/461/145 427/462/145 415/449/145
f 415/450/156 427/463/156 428/464/156 416/451/156
f 416/451/155 428/464/155 429/465/155 417/452/155
f 417/452/154 429/465/154 430/466/154 418/453/154
f 418/453/153 430/466/153 431/467/153 419/454/153
f 419/454/152 431/467/152 432/468/152 420/455/152
f 420/455/151 432/468/151 421/456/151 409/443/151
f 421/456/162 433/469/162 434/470/162 422/457/162
f 422/457/161 434/470/161 435/471/161 423/458/161
f 423/458/160 435/471/160 436/472/160 424/459/160
f 424/459/159 436/472/159 437/473/159 425/460/159
f 425/460/158 437/473/158 438/474/158 426/461/158
f 426/461/157 438/474/157 439/475/157 427/462/157
f 427/463/168 439/476/168 440/477/168 428/464/168
f 428/464/167 440/477/167 441/478/167 429/465/167
f 429/465/166 441/478/166 442/479/166 430/466/166
f 430/466/165 442/479/165 443/480/165 431/467/165
f 431/467/164 443/480/164 444/481/164 432/468/164
f 432/468/163 444/481/163 433/469/163 421/456/163
f 433/469/174 445/482/174 446/483/174 434/470/174
f 434/470/173 446/483/173 447/484/173 435/471/173
f 435/471/172 447/484/172 448/485/172 436/472/172
f 436/472/171 448/485/171 449/486/171 437/473/171
f 437/473/170 449/486/170 450/487/170 438/474/170
f 438/474/169 450/487/169 451/488/169 439/475/169
f 439/476/180 451/489/180 452/490/180 440/477/180
f 440/477/179 452/490/179 453/491/179 441/478/179
f 441/478/178 453/491/178 454/492/178 442/479/178
f 442/479/177 454/492/177 455/493/177 443/480/177
f 443/480/176 455/493/176 456/494/176 444/481/176
f 444/481/175 456/494/175 445/482/175 433/469/175
f 445/482/186 457/495/186 458/496/186 446/483/186
f 446/483/185 458/496/185 459/497/185 447/484/185
f 447/484/184 459/497/184 460/498/184 448/485/184
f 448/485/183 460/498/183 461/499/183 449/486/183
f 449/486/182 461/499/182 462/500/182 450/487/182
f 450/487/181 462/500/181 463/501/181 451/488/181
f 451/489/192 463/502/192 464/503/192 452/490/192
f 452/490/191 464/503/191 465/504/191 453/491/191
f 453/491/190 465/504/190 466/505/190 454/492/190
f 454/492/189 466/505/189 467/506/189 455/493/189
f 455/493/188 467/506/188 468/507/188 456/494/188
f 456/494/187 468/507/187 457/495/187 445/482/187
f 457/495/198 469/508/198 470/509/198 458/496/198
f 458/496/197 470/509/197 471/510/197 459/497/197
f 459/497/196 471/510/196 472/511/196 460/498/196
f 460/498/195 472/511/195 473/512/195 461/499/195
f 461/499/194 473/512/194 474/513/194 462/500/194
f 462/500/193 474/513/193 475/514/193 463/501/193
f 463/502/204 475/515/204 476/516/204 464/503/204
f 464/503/203 476/516/203 477/517/203 465/504/203
f 465/504/202 477/517/202 478/518/202 466/505/202
f 466/505/201 478/518/201 479/519/201 467/506/201
f 467/506/200 479/519/200 480/520/200 468/507/200
f 468/507/199 480/520/199 469/508/199 457/495/199
f 469/508/210 481/521/210 482/522/210 470/509/210
f 470/509/209 482/522/209 483/523/209 471/510/209
f 471/510/208 483/523/208 484/524/208 472/511/208
f 472/511/207 484/524/207 485/525/207 473/512/207
f 473/512/206 485/525/206 486/526/206 474/513/206
f 474/513/205 486/526/205 487/527/205 475/514/205
f 475/515/216 487/528/216 488/529/216 476/516/216
f 476/516/215 488/529/215 489/530/215 477/517/215
f 477/517/214 489/530/214 490/531/214 478/518/214
f 478/518/213 490/531/213 491/532/213 479/519/213
f 479/519/212 491/532/212 492/533/212 480/520/212
f 480/520/211 492/533/211 481/521/211 469/508/211
f 481/521/222 493/534/222 494/535/222 482/522/222
f 482/522/221 494/535/221 495/536/221 483/523/221
f 483/523/220 495/536/220 496/537/220 484/524/220
f 484/524/219 496/537/219 497/538/219 485/525/219
f 485/525/218 497/538/218 498/539/218 486/526/218
f 486/526/217 498/539/217 499/540/217 487/527/217
f 487/528/228 499/541/228 500/542/228 488/529/228
f 488/529/227 500/542/227 501/543/227 489/530/227
f 489/530/226 501/543/226 502/544/226 490/531/226
f 490/531/225 502/544/225 503/545/225 491/532/225
f 491/532/224 503/545/224 504/546/224 492/533/224
f 492/533/223 504/546/223 493/534/223 481/521/223
f 493/534/234 505/547/234 529/548/234 494/535/234
f 494/535/233 529/548/233 530/549/233 495/536/233
f 495/536/232 530/549/232 508/550/232 496/537/232
f 496/537/231 508/550/231 509/551/231 497/538/231
f 497/538/230 509/551/230 510/552/230 498/539/230
f 498/539/229 510/552/229 511/553/229 499/540/229
f 499/541/240 511/554/240 512/555/240 500/542/240
f 500/542/239 512/555/239 513/556/239 501/543/239
f 501/543/238 513/556/238 514/557/238 502/544/238
f 502/544/237 514/557/237 515/558/237 503/545/237
f 503/545/236 515/558/236 516/559/236 504/546/236
f 504/546/235 516/559/235 505/547/235 493/534/235
f 505/547/246 517/560/246 518/561/246 529/548/246
f 506/548/245 532/561/245 531/562/245 507/549/245
f 530/549/253 519/562/253 520/563/253 508/550/253
f 508/550/254 520/563/254 521/564/254 509/551/254
f 509/551/255 521/564/255 522/565/255 510/552/255
f 510/552/241 522/565/241 523/566/241 511/553/241
f 511/554/252 523/567/252 524/568/252 512/555/252
f 512/555/251 524/568/251 525/569/251 513/556/251
f 513/556/250 525/569/250 526/570/250 514/557/250
f 514/557/249 526/570/249 527/571/249 515/558/249
f 515/558/248 527/571/248 528/572/248 516/559/248
f 516/559/247 528/572/247 517/560/247 505/547/247
f 506/548/256 507/549/256 530/549/256 529/548/256
f 532/561/256 506/548/256 529/548/256 518/561/256
f 531/562/256 532/561/256 518/561/256 519/562/256
f 507/549/256 531/562/256 519/562/256 530/549/256
f 535/573/257 536/574/257 538/63/257 537/505/257
f 537/505/258 538/63/258 542/53/258 541/495/258
f 541/495/259 542/53/259 540/56/259 539/498/259
f 539/498/260 540/56/260 536/59/260 535/501/260
f 537/339/224 541/495/224 539/498/224 535/342/224
f 542/53/218 538/209/218 536/212/218 540/56/218
f 5/10/256 6/12/256 544/12/256 543/10/256
f 532/575/261 517/575/261 528/575/261 527/575/261 526/575/261 525/575/261 524/575/261 523/575/261 522/575/261 521/575/261 520/575/261 531/575/261
f 1/1/262 2/4/262 3/6/262 4/8/262 543/10/262 544/12/262 7/15/262 8/18/262 9/20/262 10/22/262 11/24/262 12/26/262
f 265/287/263 266/290/263 267/292/263 268/294/263 269/296/263 270/298/263 271/301/263 272/304/263 273/306/263 274/308/263 275/310/263 276/312/263
f 253/274/264 264/286/264 263/285/264 262/284/264 261/283/264 260/282/264 259/281/264 258/279/264 257/278/264 256/277/264 255/276/264 254/275/264
l 518 533
l 533 534
